<svg width="164" height="38" viewBox="0 0 164 38" fill="none" xmlns="http://www.w3.org/2000/svg">
<g filter="url(#filter0_dd_0_4)">
<rect x="3.1" y="2.1" width="31.8" height="31.8" rx="7.9" fill="white"/>
<rect x="3.1" y="2.1" width="31.8" height="31.8" rx="7.9" fill="url(#paint0_linear_0_4)"/>
<rect x="3.1" y="2.1" width="31.8" height="31.8" rx="7.9" stroke="#D0D5DD" stroke-width="0.2"/>
<path d="M18.3546 13.1827C22.7105 11.4503 27.4742 12.8184 29.6373 14.9132C30.106 15.3671 30.5041 15.8275 30.845 16.2851C31.0394 15.2107 31.0552 14.1405 30.8681 13.1055C30.1847 9.32646 26.6195 7.18559 23.4233 8.29146C20.2415 9.39237 19.0005 11.5321 19.0005 11.5321C19.0005 11.5321 17.7595 9.39237 14.5777 8.29146C11.3812 7.18559 7.81603 9.3267 7.1328 13.1055C6.62842 15.8944 7.58356 18.9391 9.61033 21.6298C10.0372 21.7732 10.4847 21.8809 10.9586 21.943C13.7978 22.3163 14.8184 21.557 16.0178 21.0486C16.8142 20.7112 17.4134 21.0942 17.3843 21.3626C17.3392 21.7786 15.7693 22.4895 16.106 22.6388C17.4351 23.2284 19.0718 23.2334 20.3053 22.18C21.838 20.8712 22.4114 21.7658 22.4114 21.7658C22.4114 21.7658 21.6502 23.7076 19.3581 24.6717C17.4457 25.4761 15.4419 25.6743 13.6107 25.4683C15.19 26.5846 17.0035 27.5204 19.0005 28.1882C24.7099 26.2784 28.9276 22.1871 30.4145 17.9096C29.4072 16.9157 28.1716 16.2995 26.6988 16.0763C23.8674 15.647 22.8322 16.3862 21.6228 16.8708C20.8198 17.1926 20.2285 16.7978 20.263 16.5299C20.3161 16.1148 21.8999 15.4351 21.5661 15.279C20.249 14.6633 18.6125 14.626 17.3585 15.6548C15.8003 16.9332 15.2446 16.0274 15.2446 16.0274C15.2446 16.0274 16.0438 14.1015 18.3546 13.1827ZM17.2709 18.5052H18.3709V17.4052H19.6296V18.5052H20.7296V19.7639H19.6296V20.8638H18.3709V19.7639H17.2709V18.5052Z" fill="url(#paint1_linear_0_4)"/>
<path d="M17.2709 18.5052H18.3709V17.4052H19.6296V18.5052H20.7296V19.7639H19.6379C21.2597 20.5834 24.2383 21.8027 27.8177 22.3451C28.9956 20.9517 29.8813 19.4428 30.4143 17.9096C29.4069 16.9157 28.1714 16.2996 26.6986 16.0763C23.8672 15.647 22.8319 16.3863 21.6226 16.8708C20.8196 17.1926 20.2283 16.7978 20.2627 16.5299C20.3159 16.1148 21.8997 15.4351 21.5659 15.279C20.2488 14.6633 18.6123 14.626 17.3583 15.6548C15.8 16.9332 15.2444 16.0274 15.2444 16.0274C15.2444 16.0274 16.0438 14.1013 18.3543 13.1823C22.7103 11.4499 27.474 12.818 29.637 14.9128C30.1058 15.3666 30.5038 15.8271 30.8447 16.2847C31.0392 15.2102 31.055 14.14 30.8679 13.105C30.1844 9.326 26.6192 7.18512 23.423 8.291C20.2412 9.39191 19.0002 11.5316 19.0002 11.5316C19.0002 11.5316 17.7592 9.39191 14.5774 8.291C12.752 7.65927 10.8067 8.0883 9.34621 9.27521C10.0323 10.7442 10.836 12.1168 13.1255 14.8773C14.9869 17.1222 17.2709 18.5052 17.2709 18.5052Z" fill="url(#paint2_linear_0_4)"/>
<path opacity="0.31" d="M27.2769 9.64942C24.2711 8.13933 21.169 10.489 20.185 11.7298C21.882 11.3724 23.3668 11.189 25.2457 11.5838C28.0251 12.1678 29.0653 13.1714 30.3063 14.6541C30.0871 11.9068 28.3518 10.1895 27.2769 9.64942Z" fill="url(#paint3_linear_0_4)"/>
</g>
<path d="M55.128 28.288C53.848 28.288 52.664 28.056 51.576 27.592C50.504 27.128 49.56 26.48 48.744 25.648C47.944 24.816 47.32 23.84 46.872 22.72C46.424 21.6 46.2 20.376 46.2 19.048C46.2 17.72 46.416 16.496 46.848 15.376C47.296 14.24 47.92 13.264 48.72 12.448C49.536 11.616 50.488 10.976 51.576 10.528C52.664 10.064 53.848 9.832 55.128 9.832C56.408 9.832 57.552 10.048 58.56 10.48C59.584 10.912 60.448 11.488 61.152 12.208C61.856 12.912 62.36 13.688 62.664 14.536L59.736 15.904C59.4 15.008 58.832 14.272 58.032 13.696C57.232 13.104 56.264 12.808 55.128 12.808C54.008 12.808 53.016 13.072 52.152 13.6C51.304 14.128 50.64 14.856 50.16 15.784C49.696 16.712 49.464 17.8 49.464 19.048C49.464 20.296 49.696 21.392 50.16 22.336C50.64 23.264 51.304 23.992 52.152 24.52C53.016 25.048 54.008 25.312 55.128 25.312C56.264 25.312 57.232 25.024 58.032 24.448C58.832 23.856 59.4 23.112 59.736 22.216L62.664 23.584C62.36 24.432 61.856 25.216 61.152 25.936C60.448 26.64 59.584 27.208 58.56 27.64C57.552 28.072 56.408 28.288 55.128 28.288ZM69.7059 28.288C68.6979 28.288 67.8179 28.064 67.0659 27.616C66.3299 27.168 65.7619 26.544 65.3619 25.744C64.9779 24.944 64.7859 24.008 64.7859 22.936V14.944H67.9299V22.672C67.9299 23.216 68.0339 23.696 68.2419 24.112C68.4659 24.512 68.7779 24.832 69.1779 25.072C69.5939 25.296 70.0579 25.408 70.5699 25.408C71.0819 25.408 71.5379 25.296 71.9379 25.072C72.3379 24.832 72.6499 24.504 72.8739 24.088C73.0979 23.672 73.2099 23.176 73.2099 22.6V14.944H76.3539V28H73.3779V25.432L73.6419 25.888C73.3379 26.688 72.8339 27.288 72.1299 27.688C71.4419 28.088 70.6339 28.288 69.7059 28.288ZM79.2765 28V14.944H82.2285V17.848L81.9885 17.416C82.2925 16.44 82.7645 15.76 83.4045 15.376C84.0605 14.992 84.8445 14.8 85.7565 14.8H86.5245V17.584H85.3965C84.5005 17.584 83.7805 17.864 83.2365 18.424C82.6925 18.968 82.4205 19.736 82.4205 20.728V28H79.2765ZM94.4451 28.288C93.1011 28.288 91.9251 27.984 90.9171 27.376C89.9091 26.768 89.1251 25.944 88.5651 24.904C88.0051 23.864 87.7251 22.712 87.7251 21.448C87.7251 20.136 88.0051 18.976 88.5651 17.968C89.1411 16.944 89.9171 16.136 90.8931 15.544C91.8851 14.952 92.9891 14.656 94.2051 14.656C95.2291 14.656 96.1251 14.824 96.8931 15.16C97.6771 15.496 98.3411 15.96 98.8851 16.552C99.4291 17.144 99.8451 17.824 100.133 18.592C100.421 19.344 100.565 20.16 100.565 21.04C100.565 21.264 100.549 21.496 100.517 21.736C100.501 21.976 100.461 22.184 100.397 22.36H90.3171V19.96H98.6211L97.1331 21.088C97.2771 20.352 97.2371 19.696 97.0131 19.12C96.8051 18.544 96.4531 18.088 95.9571 17.752C95.4771 17.416 94.8931 17.248 94.2051 17.248C93.5491 17.248 92.9651 17.416 92.4531 17.752C91.9411 18.072 91.5491 18.552 91.2771 19.192C91.0211 19.816 90.9251 20.576 90.9891 21.472C90.9251 22.272 91.0291 22.984 91.3011 23.608C91.5891 24.216 92.0051 24.688 92.5491 25.024C93.1091 25.36 93.7491 25.528 94.4691 25.528C95.1891 25.528 95.7971 25.376 96.2931 25.072C96.8051 24.768 97.2051 24.36 97.4931 23.848L100.037 25.096C99.7811 25.72 99.3811 26.272 98.8371 26.752C98.2931 27.232 97.6451 27.608 96.8931 27.88C96.1571 28.152 95.3411 28.288 94.4451 28.288ZM103.212 28V10.12H109.884C111.1 10.12 112.172 10.344 113.1 10.792C114.044 11.224 114.78 11.864 115.308 12.712C115.836 13.544 116.1 14.56 116.1 15.76C116.1 16.944 115.828 17.96 115.284 18.808C114.756 19.64 114.028 20.28 113.1 20.728C112.172 21.176 111.1 21.4 109.884 21.4H106.476V28H103.212ZM106.476 18.52H109.932C110.524 18.52 111.036 18.408 111.468 18.184C111.9 17.944 112.236 17.616 112.476 17.2C112.716 16.784 112.836 16.304 112.836 15.76C112.836 15.2 112.716 14.72 112.476 14.32C112.236 13.904 111.9 13.584 111.468 13.36C111.036 13.12 110.524 13 109.932 13H106.476V18.52ZM118.511 28V9.832H121.655V28H118.511ZM129.214 28.288C128.206 28.288 127.326 28.064 126.574 27.616C125.838 27.168 125.27 26.544 124.87 25.744C124.486 24.944 124.294 24.008 124.294 22.936V14.944H127.438V22.672C127.438 23.216 127.542 23.696 127.75 24.112C127.974 24.512 128.286 24.832 128.686 25.072C129.102 25.296 129.566 25.408 130.078 25.408C130.59 25.408 131.046 25.296 131.446 25.072C131.846 24.832 132.158 24.504 132.382 24.088C132.606 23.672 132.718 23.176 132.718 22.6V14.944H135.862V28H132.886V25.432L133.15 25.888C132.846 26.688 132.342 27.288 131.638 27.688C130.95 28.088 130.142 28.288 129.214 28.288ZM143.752 28.288C142.36 28.288 141.144 27.96 140.104 27.304C139.08 26.632 138.376 25.728 137.992 24.592L140.344 23.464C140.68 24.2 141.144 24.776 141.736 25.192C142.344 25.608 143.016 25.816 143.752 25.816C144.328 25.816 144.784 25.688 145.12 25.432C145.456 25.176 145.624 24.84 145.624 24.424C145.624 24.168 145.552 23.96 145.408 23.8C145.28 23.624 145.096 23.48 144.856 23.368C144.632 23.24 144.384 23.136 144.112 23.056L141.976 22.456C140.872 22.136 140.032 21.648 139.456 20.992C138.896 20.336 138.616 19.56 138.616 18.664C138.616 17.864 138.816 17.168 139.216 16.576C139.632 15.968 140.2 15.496 140.92 15.16C141.656 14.824 142.496 14.656 143.44 14.656C144.672 14.656 145.76 14.952 146.704 15.544C147.648 16.136 148.32 16.968 148.72 18.04L146.32 19.168C146.096 18.576 145.72 18.104 145.192 17.752C144.664 17.4 144.072 17.224 143.416 17.224C142.888 17.224 142.472 17.344 142.168 17.584C141.864 17.824 141.712 18.136 141.712 18.52C141.712 18.76 141.776 18.968 141.904 19.144C142.032 19.32 142.208 19.464 142.432 19.576C142.672 19.688 142.944 19.792 143.248 19.888L145.336 20.512C146.408 20.832 147.232 21.312 147.808 21.952C148.4 22.592 148.696 23.376 148.696 24.304C148.696 25.088 148.488 25.784 148.072 26.392C147.656 26.984 147.08 27.448 146.344 27.784C145.608 28.12 144.744 28.288 143.752 28.288Z" fill="white"/>
<defs>
<filter id="filter0_dd_0_4" x="0" y="0" width="38" height="38" filterUnits="userSpaceOnUse" color-interpolation-filters="sRGB">
<feFlood flood-opacity="0" result="BackgroundImageFix"/>
<feColorMatrix in="SourceAlpha" type="matrix" values="0 0 0 0 0 0 0 0 0 0 0 0 0 0 0 0 0 0 127 0" result="hardAlpha"/>
<feOffset dy="1"/>
<feGaussianBlur stdDeviation="1"/>
<feColorMatrix type="matrix" values="0 0 0 0 0.0627451 0 0 0 0 0.0941176 0 0 0 0 0.156863 0 0 0 0.06 0"/>
<feBlend mode="normal" in2="BackgroundImageFix" result="effect1_dropShadow_0_4"/>
<feColorMatrix in="SourceAlpha" type="matrix" values="0 0 0 0 0 0 0 0 0 0 0 0 0 0 0 0 0 0 127 0" result="hardAlpha"/>
<feOffset dy="1"/>
<feGaussianBlur stdDeviation="1.5"/>
<feColorMatrix type="matrix" values="0 0 0 0 0.0627451 0 0 0 0 0.0941176 0 0 0 0 0.156863 0 0 0 0.1 0"/>
<feBlend mode="normal" in2="effect1_dropShadow_0_4" result="effect2_dropShadow_0_4"/>
<feBlend mode="normal" in="SourceGraphic" in2="effect2_dropShadow_0_4" result="shape"/>
</filter>
<linearGradient id="paint0_linear_0_4" x1="19" y1="2" x2="19" y2="34" gradientUnits="userSpaceOnUse">
<stop stop-color="white"/>
<stop offset="1" stop-color="#D0D5DD"/>
</linearGradient>
<linearGradient id="paint1_linear_0_4" x1="10.1989" y1="24.2137" x2="27.8347" y2="6.57789" gradientUnits="userSpaceOnUse">
<stop stop-color="#0076C1"/>
<stop offset="0.0737" stop-color="#0B82C6"/>
<stop offset="0.2766" stop-color="#269ED3"/>
<stop offset="0.4546" stop-color="#36AFDA"/>
<stop offset="0.587" stop-color="#3CB5DD"/>
</linearGradient>
<linearGradient id="paint2_linear_0_4" x1="10.1388" y1="24.2537" x2="27.8274" y2="6.56509" gradientUnits="userSpaceOnUse">
<stop stop-color="#00A482"/>
<stop offset="1" stop-color="#79DD83"/>
</linearGradient>
<linearGradient id="paint3_linear_0_4" x1="24.8608" y1="13.5072" x2="28.5287" y2="10.1131" gradientUnits="userSpaceOnUse">
<stop stop-color="#00A482"/>
<stop offset="1" stop-color="#79DD83"/>
</linearGradient>
</defs>
</svg>
